<?xml version="1.0" encoding="UTF-8"?>
<!DOCTYPE svg PUBLIC "-//W3C//DTD SVG 1.1//EN" "http://www.w3.org/Graphics/SVG/1.1/DTD/svg11.dtd">
<svg xmlns="http://www.w3.org/2000/svg" version="1.1" width="988px" height="646px" style="shape-rendering:geometricPrecision; text-rendering:geometricPrecision; image-rendering:optimizeQuality; fill-rule:evenodd; clip-rule:evenodd" xmlns:xlink="http://www.w3.org/1999/xlink">
<g><path style="opacity:1" fill="#fefefe" d="M -0.5,-0.5 C 328.833,-0.5 658.167,-0.5 987.5,-0.5C 987.5,214.833 987.5,430.167 987.5,645.5C 658.167,645.5 328.833,645.5 -0.5,645.5C -0.5,430.167 -0.5,214.833 -0.5,-0.5 Z"/></g>
<g><path style="opacity:1" fill="#676767" d="M 604.5,4.5 C 612.865,4.44652 621.198,4.94652 629.5,6C 641.815,11.7587 644.982,20.9253 639,33.5C 633.931,45.5411 628.764,57.5411 623.5,69.5C 628.524,72.1203 633.69,74.4536 639,76.5C 642.681,80.52 644.014,85.1867 643,90.5C 634.443,107.95 625.109,124.95 615,141.5C 612.856,146.045 612.356,150.712 613.5,155.5C 623.409,150.378 633.409,145.545 643.5,141C 653.309,139.47 656.476,143.303 653,152.5C 643.269,161.56 632.435,169.06 620.5,175C 602.309,182.734 591.976,176.734 589.5,157C 590.701,149.995 592.534,143.162 595,136.5C 602.613,120.767 611.113,105.601 620.5,91C 605.93,87.3693 600.43,78.2027 604,63.5C 609.23,51.1403 614.064,38.6403 618.5,26C 612.141,24.902 606.141,25.902 600.5,29C 587.854,31.3552 583.187,26.3552 586.5,14C 591.98,9.64775 597.98,6.48108 604.5,4.5 Z"/></g>
<g><path style="opacity:1" fill="#676767" d="M 286.5,14.5 C 290.792,14.5647 294.625,15.8981 298,18.5C 299.506,23.7455 299.839,29.0788 299,34.5C 291.066,61.2352 284.233,88.2352 278.5,115.5C 296.591,112.174 314.757,109.174 333,106.5C 341.348,107.527 343.681,111.86 340,119.5C 339.097,120.701 337.931,121.535 336.5,122C 316.653,126.116 297.319,131.949 278.5,139.5C 277.667,140.5 276.833,141.5 276,142.5C 277.788,149.225 276.622,155.392 272.5,161C 266.909,164.346 261.409,164.179 256,160.5C 255.299,115.703 262.299,72.0366 277,29.5C 278.68,23.453 281.847,18.453 286.5,14.5 Z"/></g>
<g><path style="opacity:1" fill="#676767" d="M 526.5,14.5 C 536.124,13.9564 540.457,18.4564 539.5,28C 533.796,51.5173 527.963,75.0173 522,98.5C 520.581,104.09 519.748,109.757 519.5,115.5C 537.109,112.257 554.775,109.257 572.5,106.5C 580.245,107.072 583.078,111.072 581,118.5C 579.269,120.617 577.102,122.117 574.5,123C 554.798,126.511 535.798,132.345 517.5,140.5C 516.104,141.852 515.437,143.519 515.5,145.5C 517.12,151.149 516.12,156.315 512.5,161C 506.687,164.307 501.187,163.807 496,159.5C 495.431,115.4 502.431,72.3995 517,30.5C 519.274,26.2864 521.274,21.9531 523,17.5C 524.518,16.8366 525.685,15.8366 526.5,14.5 Z"/></g>
<g><path style="opacity:1" fill="#676767" d="M 696.5,19.5 C 710.049,18.2183 715.216,24.2183 712,37.5C 706.93,55.868 705.096,74.5347 706.5,93.5C 721.328,87.7197 736.662,84.553 752.5,84C 756.715,88.9581 756.381,93.6248 751.5,98C 736.208,104.93 720.875,111.764 705.5,118.5C 704.667,131.821 704.167,145.154 704,158.5C 696.503,162.229 690.503,160.563 686,153.5C 682.723,120.171 682.723,86.838 686,53.5C 687.464,43.7156 689.464,34.049 692,24.5C 693.059,22.3408 694.559,20.6741 696.5,19.5 Z"/></g>
<g><path style="opacity:1" fill="#696969" d="M 129.5,24.5 C 137.894,23.4016 143.227,26.9016 145.5,35C 135.279,76.2137 129.446,118.047 128,160.5C 123.886,163.909 119.553,164.242 115,161.5C 113.164,156.989 111.83,152.323 111,147.5C 110.916,112.915 113.916,78.5818 120,44.5C 121.306,36.8899 124.473,30.2233 129.5,24.5 Z"/></g>
<g><path style="opacity:1" fill="#686868" d="M 30.5,46.5 C 42.039,45.8734 46.539,51.2067 44,62.5C 41.9859,76.9959 40.1525,91.4959 38.5,106C 38.8333,108.167 39.1667,110.333 39.5,112.5C 53.5395,107.098 67.5395,101.598 81.5,96C 94.2362,93.3869 98.0695,97.8869 93,109.5C 75.5691,122.548 56.2358,131.548 35,136.5C 27.2454,136.42 21.9121,132.753 19,125.5C 17.1888,101.555 18.8555,77.8881 24,54.5C 25.4785,51.1725 27.6452,48.5058 30.5,46.5 Z"/></g>
<g><path style="opacity:1" fill="#686868" d="M 432.5,52.5 C 439.508,52.3337 446.508,52.5004 453.5,53C 465.773,57.7203 469.94,66.5536 466,79.5C 460.515,97.4696 454.182,115.136 447,132.5C 442.137,138.426 437.137,138.76 432,133.5C 431.333,128.167 431.333,122.833 432,117.5C 436.191,102.735 440.691,88.0683 445.5,73.5C 440.525,72.7418 435.525,72.9085 430.5,74C 421.674,76.7921 412.674,78.4587 403.5,79C 398.257,73.0732 398.257,67.0732 403.5,61C 413.161,57.6736 422.828,54.8403 432.5,52.5 Z"/></g>
<g><path style="opacity:1" fill="#696969" d="M 188.5,53.5 C 198.192,53.4721 207.859,53.9721 217.5,55C 221.333,56.8333 224.167,59.6667 226,63.5C 226.573,69.5391 226.239,75.5391 225,81.5C 219.993,98.8558 213.993,115.856 207,132.5C 201.969,138.676 196.636,139.009 191,133.5C 190.333,129.833 190.333,126.167 191,122.5C 195.328,106.017 200.161,89.6841 205.5,73.5C 204.667,73.1667 203.833,72.8333 203,72.5C 198.856,73.1645 194.689,73.6645 190.5,74C 183.031,76.6171 175.365,78.4504 167.5,79.5C 162.091,79.0854 159.425,76.0854 159.5,70.5C 159.768,66.8568 161.101,63.6901 163.5,61C 171.723,57.7 180.057,55.2 188.5,53.5 Z"/></g>
<g><path style="opacity:1" fill="#c3c4c4" d="M 831.5,111.5 C 846.886,109.786 859.053,115.119 868,127.5C 870.594,135.628 869.594,143.294 865,150.5C 861.833,153.667 858.667,156.833 855.5,160C 868.145,160.247 880.478,162.247 892.5,166C 903.923,173.921 908.089,184.755 905,198.5C 902.943,205.609 899.11,211.609 893.5,216.5C 915.48,232.647 934.647,251.647 951,273.5C 981.235,321.464 989.902,373.131 977,428.5C 955.758,500.742 908.925,547.242 836.5,568C 828.768,568.946 821.102,570.28 813.5,572C 756.169,573.141 698.836,574.141 641.5,575C 619.975,608.949 589.641,630.949 550.5,641C 536.382,643.361 526.882,637.861 522,624.5C 521.333,621.167 521.333,617.833 522,614.5C 527.877,601.702 532.044,588.369 534.5,574.5C 438.833,573.402 343.166,573.569 247.5,575C 243.5,584.33 236.5,589.996 226.5,592C 221.167,592.667 215.833,592.667 210.5,592C 205.443,590.814 200.443,589.814 195.5,589C 204.88,605.739 202.88,621.072 189.5,635C 175.351,644.592 162.184,643.426 150,631.5C 144.533,622.966 141.867,613.633 142,603.5C 136.295,611.874 128.795,618.04 119.5,622C 102.331,625.499 90.1641,619.333 83,603.5C 81.0836,589.166 85.9169,577.666 97.5,569C 104.545,564.477 111.878,560.477 119.5,557C 37.8304,515.864 -0.0028891,449.364 6,357.5C 15.6188,294.048 47.7854,245.881 102.5,213C 126.275,200.056 151.609,192.056 178.5,189C 375.833,188.667 573.167,188.333 770.5,188C 772.623,187.185 774.623,186.185 776.5,185C 760.793,179.952 748.627,170.452 740,156.5C 737.405,140.779 743.572,130.279 758.5,125C 763.076,123.524 767.743,123.19 772.5,124C 785.285,128.787 795.785,136.62 804,147.5C 807.432,130.927 816.599,118.927 831.5,111.5 Z"/></g>
<g><path style="opacity:1" fill="#fcdc42" d="M 831.5,115.5 C 843.341,113.996 853.508,117.33 862,125.5C 866.667,132.5 866.667,139.5 862,146.5C 856.5,152.667 851,158.833 845.5,165C 856.167,165.333 866.833,165.667 877.5,166C 900.201,171.571 906.701,185.071 897,206.5C 893.579,210.458 889.412,213.292 884.5,215C 875.447,215.846 866.447,215.513 857.5,214C 852.649,212.151 848.649,209.151 845.5,205C 844.552,204.517 843.552,204.351 842.5,204.5C 847.343,214.694 851.01,225.361 853.5,236.5C 851.347,257.823 839.68,266.99 818.5,264C 808.41,257.892 803.41,248.892 803.5,237C 804.094,227.03 806.094,217.364 809.5,208C 809.333,206.5 808.5,205.667 807,205.5C 803.217,213.728 798.884,221.728 794,229.5C 788.831,237.677 781.664,243.177 772.5,246C 755.099,248.823 745.099,241.656 742.5,224.5C 742.843,218.637 744.676,213.304 748,208.5C 758.986,196.757 772.486,189.923 788.5,188C 789.357,187.311 790.023,186.478 790.5,185.5C 775.112,182.056 761.612,175.056 750,164.5C 743.736,157.106 742.069,148.773 745,139.5C 752.68,130.05 762.514,126.55 774.5,129C 787.301,135.132 797.634,144.132 805.5,156C 806.448,156.483 807.448,156.649 808.5,156.5C 807.615,137.928 815.282,124.261 831.5,115.5 Z"/></g>
<g><path style="opacity:1" fill="#c4c4c0" d="M 813.5,162.5 C 833.757,161.42 842.257,170.753 839,190.5C 830.23,204.32 819.397,206.153 806.5,196C 802.012,190.207 800.178,183.707 801,176.5C 801.667,175.167 802.333,173.833 803,172.5C 806.203,168.822 809.703,165.489 813.5,162.5 Z"/></g>
<g><path style="opacity:1" fill="#1d92fd" d="M 798.5,228.5 C 799.167,234.167 799.833,239.833 800.5,245.5C 806.882,267.023 820.549,273.523 841.5,265C 856.228,253.863 860.561,239.529 854.5,222C 854.833,221.5 855.167,221 855.5,220.5C 921.122,248.987 957.288,298.987 964,370.5C 965.84,423.296 948.34,468.463 911.5,506C 879.515,535.006 841.849,551.006 798.5,554C 743.167,554.333 687.833,554.667 632.5,555C 620.661,576.172 604.661,593.506 584.5,607C 570.893,615.147 556.226,619.98 540.5,621.5C 545.908,606.442 550.408,591.109 554,575.5C 554.667,570.167 554.667,564.833 554,559.5C 553.535,558.069 552.701,556.903 551.5,556C 450.5,555.338 349.5,554.671 248.5,554C 244.768,544.602 238.101,538.269 228.5,535C 218.519,534.054 208.519,533.387 198.5,533C 208.451,524.621 212.951,514.121 212,501.5C 208.345,493.178 202.178,487.678 193.5,485C 177.533,481.206 165.033,486.04 156,499.5C 152.93,506.052 150.263,512.719 148,519.5C 139.289,508.766 128.456,501.266 115.5,497C 102.248,495.126 92.248,499.959 85.5,511.5C 84.9984,512.521 84.3317,512.688 83.5,512C 27.4179,458.055 11.2512,393.889 35,319.5C 56.823,264.843 95.9897,229.343 152.5,213C 159.115,211.41 165.782,210.077 172.5,209C 223.984,207.864 275.484,207.364 327,207.5C 465.833,207.99 604.667,208.49 743.5,209C 734.073,228.382 739.407,242.049 759.5,250C 777.313,251.757 790.313,244.59 798.5,228.5 Z"/></g>
<g><path style="opacity:1" fill="#7daedc" d="M 798.5,228.5 C 798.56,227.957 798.893,227.624 799.5,227.5C 800.496,233.463 800.829,239.463 800.5,245.5C 799.833,239.833 799.167,234.167 798.5,228.5 Z"/></g>
<g><path style="opacity:1" fill="#b4daff" d="M 495.5,305.5 C 490.167,305.5 484.833,305.5 479.5,305.5C 479.611,304.883 479.944,304.383 480.5,304C 485.743,303.306 490.743,303.806 495.5,305.5 Z"/></g>
<g><path style="opacity:1" fill="#7abdfe" d="M 149.5,306.5 C 146.167,306.833 142.833,307.167 139.5,307.5C 141.117,306.028 143.117,305.361 145.5,305.5C 147.045,305.511 148.378,305.844 149.5,306.5 Z"/></g>
<g><path style="opacity:1" fill="#7bbefe" d="M 236.5,306.5 C 233.167,306.833 229.833,307.167 226.5,307.5C 228.117,306.028 230.117,305.361 232.5,305.5C 234.045,305.511 235.378,305.844 236.5,306.5 Z"/></g>
<g><path style="opacity:1" fill="#84c2ff" d="M 411.5,305.5 C 408.545,306.159 405.545,306.492 402.5,306.5C 403.946,305.06 405.779,304.393 408,304.5C 409.385,304.514 410.551,304.848 411.5,305.5 Z"/></g>
<g><path style="opacity:1" fill="#fcfdff" d="M 411.5,305.5 C 418.107,306.609 423.274,309.942 427,315.5C 434.401,334.871 440.901,354.537 446.5,374.5C 446.527,377.39 447.693,378.39 450,377.5C 451.352,374.28 452.186,370.947 452.5,367.5C 452.5,366.833 452.5,366.167 452.5,365.5C 454.99,362.374 456.323,358.708 456.5,354.5C 456.5,353.833 456.5,353.167 456.5,352.5C 458.99,349.374 460.323,345.708 460.5,341.5C 460.833,340.167 461.167,338.833 461.5,337.5C 463.472,334.916 464.472,331.916 464.5,328.5C 465.275,322.766 467.109,317.433 470,312.5C 472.501,309.152 475.668,306.818 479.5,305.5C 484.833,305.5 490.167,305.5 495.5,305.5C 502.452,307.69 506.952,312.356 509,319.5C 514.799,337.896 520.799,356.229 527,374.5C 527.708,375.381 528.542,376.047 529.5,376.5C 531.074,374.898 531.741,372.898 531.5,370.5C 531.5,370.167 531.5,369.833 531.5,369.5C 533.074,367.898 533.741,365.898 533.5,363.5C 533.5,363.167 533.5,362.833 533.5,362.5C 535.074,360.898 535.741,358.898 535.5,356.5C 535.5,356.167 535.5,355.833 535.5,355.5C 537.074,353.898 537.741,351.898 537.5,349.5C 537.5,349.167 537.5,348.833 537.5,348.5C 539.074,346.898 539.741,344.898 539.5,342.5C 539.5,342.167 539.5,341.833 539.5,341.5C 541.074,339.898 541.741,337.898 541.5,335.5C 541.5,334.833 541.5,334.167 541.5,333.5C 543.655,331.383 544.655,328.716 544.5,325.5C 544.5,325.167 544.5,324.833 544.5,324.5C 546.074,322.898 546.741,320.898 546.5,318.5C 548.167,312.167 552.167,308.167 558.5,306.5C 562.833,306.5 567.167,306.5 571.5,306.5C 582.465,310.756 586.965,318.756 585,330.5C 571.393,367.988 557.393,405.322 543,442.5C 539.243,447.128 534.41,449.795 528.5,450.5C 524.833,449.833 521.167,449.167 517.5,448.5C 513.781,445.946 510.948,442.613 509,438.5C 502.051,415.655 494.718,392.988 487,370.5C 479.6,393.369 472.6,416.369 466,439.5C 463.454,446.187 458.621,449.52 451.5,449.5C 447.176,449.073 442.842,448.739 438.5,448.5C 434.12,445.286 430.62,441.286 428,436.5C 415.193,401.245 402.693,365.912 390.5,330.5C 390.5,326.167 390.5,321.833 390.5,317.5C 392.57,311.765 396.57,308.098 402.5,306.5C 405.545,306.492 408.545,306.159 411.5,305.5 Z"/></g>
<g><path style="opacity:1" fill="#83c1ff" d="M 571.5,306.5 C 567.167,306.5 562.833,306.5 558.5,306.5C 562.786,304.011 567.119,304.011 571.5,306.5 Z"/></g>
<g><path style="opacity:1" fill="#a0cfff" d="M 341.5,307.5 C 336.13,307.392 330.797,307.725 325.5,308.5C 327.508,306.073 330.174,305.073 333.5,305.5C 336.486,305.382 339.152,306.048 341.5,307.5 Z"/></g>
<g><path style="opacity:1" fill="#b2d8ff" d="M 649.5,307.5 C 643.5,307.5 637.5,307.5 631.5,307.5C 633.679,306.074 636.179,305.408 639,305.5C 642.723,305.701 646.223,306.367 649.5,307.5 Z"/></g>
<g><path style="opacity:1" fill="#88c4ff" d="M 744.5,306.5 C 740.384,306.541 736.384,307.207 732.5,308.5C 733.058,307.21 734.058,306.377 735.5,306C 738.696,305.195 741.696,305.362 744.5,306.5 Z"/></g>
<g><path style="opacity:1" fill="#88c3ff" d="M 809.5,306.5 C 805.384,306.541 801.384,307.207 797.5,308.5C 798.058,307.21 799.058,306.377 800.5,306C 803.696,305.195 806.696,305.362 809.5,306.5 Z"/></g>
<g><path style="opacity:1" fill="#fbfdff" d="M 149.5,306.5 C 156.661,308.079 161.994,312.079 165.5,318.5C 166.203,331.488 166.537,344.488 166.5,357.5C 182.5,357.5 198.5,357.5 214.5,357.5C 214.5,353.5 214.5,349.5 214.5,345.5C 216.175,336.389 216.842,327.055 216.5,317.5C 218.167,312.5 221.5,309.167 226.5,307.5C 229.833,307.167 233.167,306.833 236.5,306.5C 243.611,307.974 248.777,311.974 252,318.5C 252.667,357.5 252.667,396.5 252,435.5C 249.089,441.918 244.256,445.918 237.5,447.5C 233.519,446.979 229.519,446.646 225.5,446.5C 221.16,444.326 217.994,440.993 216,436.5C 214.911,422.52 214.411,408.52 214.5,394.5C 212.5,394.5 210.5,394.5 208.5,394.5C 194.343,393.504 180.01,393.171 165.5,393.5C 165.5,402.5 165.5,411.5 165.5,420.5C 165.666,425.179 165.499,429.845 165,434.5C 164.76,436.852 163.927,438.852 162.5,440.5C 156.987,445.885 150.321,448.219 142.5,447.5C 140.345,447.628 138.345,447.128 136.5,446C 134.212,443.257 132.045,440.423 130,437.5C 128.594,429.251 128.094,420.917 128.5,412.5C 128.793,380.833 129.126,349.166 129.5,317.5C 131.167,312.5 134.5,309.167 139.5,307.5C 142.833,307.167 146.167,306.833 149.5,306.5 Z"/></g>
<g><path style="opacity:1" fill="#fbfcff" d="M 341.5,307.5 C 348.217,309.371 353.384,313.371 357,319.5C 371.456,354.742 385.623,390.075 399.5,425.5C 399.927,429.824 400.261,434.158 400.5,438.5C 398.156,446.511 392.822,450.844 384.5,451.5C 381.193,450.949 377.86,450.616 374.5,450.5C 371.586,449.094 369.086,447.094 367,444.5C 364.729,439.183 362.563,433.85 360.5,428.5C 360.703,426.61 360.037,425.11 358.5,424C 342.46,423.096 326.46,423.43 310.5,425C 309.536,426.725 308.869,428.559 308.5,430.5C 306.577,435.098 304.743,439.765 303,444.5C 299.624,448.271 295.458,450.604 290.5,451.5C 286.188,450.752 281.854,450.086 277.5,449.5C 272.246,446.327 269.579,441.66 269.5,435.5C 270.295,431.524 270.962,427.524 271.5,423.5C 283.835,392.828 296.168,362.162 308.5,331.5C 310.975,330.313 311.975,328.313 311.5,325.5C 312.637,316.877 317.304,311.21 325.5,308.5C 330.797,307.725 336.13,307.392 341.5,307.5 Z"/></g>
<g><path style="opacity:1" fill="#fbfcff" d="M 631.5,307.5 C 637.5,307.5 643.5,307.5 649.5,307.5C 654.457,310.623 658.624,314.623 662,319.5C 676.79,356.076 691.29,392.742 705.5,429.5C 705.167,433.5 704.833,437.5 704.5,441.5C 696.427,453.607 686.26,455.607 674,447.5C 670.095,440.792 666.762,433.792 664,426.5C 663.329,425.748 662.496,425.414 661.5,425.5C 659.031,424.683 656.365,424.183 653.5,424C 642.833,423.333 632.167,423.333 621.5,424C 615.266,423.907 612.266,427.074 612.5,433.5C 610.853,443.814 604.853,449.814 594.5,451.5C 590.846,451.058 587.179,450.724 583.5,450.5C 573.629,444.221 570.796,435.554 575,424.5C 578.076,417.096 581.243,409.763 584.5,402.5C 586.975,401.313 587.975,399.313 587.5,396.5C 589.379,389.195 592.046,382.195 595.5,375.5C 597.975,374.313 598.975,372.313 598.5,369.5C 603.58,354.924 609.247,340.591 615.5,326.5C 617.975,325.313 618.975,323.313 618.5,320.5C 620.5,313.833 624.833,309.5 631.5,307.5 Z"/></g>
<g><path style="opacity:1" fill="#fbfcff" d="M 744.5,306.5 C 752.657,307.832 757.823,312.499 760,320.5C 760.667,358.167 760.667,395.833 760,433.5C 755.286,445.273 746.786,449.773 734.5,447C 723.871,440.895 719.871,431.728 722.5,419.5C 722.714,385.499 723.048,351.499 723.5,317.5C 724.895,312.956 727.895,309.956 732.5,308.5C 736.384,307.207 740.384,306.541 744.5,306.5 Z"/></g>
<g><path style="opacity:1" fill="#fbfdff" d="M 809.5,306.5 C 817.657,307.832 822.823,312.499 825,320.5C 825.667,358.167 825.667,395.833 825,433.5C 822.714,441.953 817.214,446.62 808.5,447.5C 805.193,446.949 801.86,446.616 798.5,446.5C 793.775,444.108 790.442,440.441 788.5,435.5C 788.74,395.832 789.073,356.166 789.5,316.5C 790.5,312.167 793.167,309.5 797.5,308.5C 801.384,307.207 805.384,306.541 809.5,306.5 Z"/></g>
<g><path style="opacity:1" fill="#b7daff" d="M 789.5,316.5 C 789.073,356.166 788.74,395.832 788.5,435.5C 787.778,435.082 787.278,434.416 787,433.5C 786.333,395.833 786.333,358.167 787,320.5C 787.2,318.68 788.034,317.347 789.5,316.5 Z"/></g>
<g><path style="opacity:1" fill="#8bc6fe" d="M 546.5,318.5 C 546.741,320.898 546.074,322.898 544.5,324.5C 544.259,322.102 544.926,320.102 546.5,318.5 Z"/></g>
<g><path style="opacity:1" fill="#9bccfe" d="M 618.5,320.5 C 618.975,323.313 617.975,325.313 615.5,326.5C 615.992,324.181 616.992,322.181 618.5,320.5 Z"/></g>
<g><path style="opacity:1" fill="#aad6ff" d="M 216.5,317.5 C 216.842,327.055 216.175,336.389 214.5,345.5C 214.334,336.494 214.5,327.494 215,318.5C 215.383,317.944 215.883,317.611 216.5,317.5 Z"/></g>
<g><path style="opacity:1" fill="#b5daff" d="M 390.5,317.5 C 390.5,321.833 390.5,326.167 390.5,330.5C 387.91,326.137 387.91,321.804 390.5,317.5 Z"/></g>
<g><path style="opacity:1" fill="#9accfe" d="M 311.5,325.5 C 311.975,328.313 310.975,330.313 308.5,331.5C 308.992,329.181 309.992,327.181 311.5,325.5 Z"/></g>
<g><path style="opacity:1" fill="#92c7fe" d="M 544.5,325.5 C 544.655,328.716 543.655,331.383 541.5,333.5C 541.733,330.458 542.733,327.792 544.5,325.5 Z"/></g>
<g><path style="opacity:1" fill="#92c9fe" d="M 464.5,328.5 C 464.472,331.916 463.472,334.916 461.5,337.5C 461.528,334.084 462.528,331.084 464.5,328.5 Z"/></g>
<g><path style="opacity:1" fill="#60afff" d="M 165.5,318.5 C 166.222,318.918 166.722,319.584 167,320.5C 167.5,332.495 167.667,344.495 167.5,356.5C 182.833,356.5 198.167,356.5 213.5,356.5C 213.185,352.629 213.518,348.962 214.5,345.5C 214.5,349.5 214.5,353.5 214.5,357.5C 198.5,357.5 182.5,357.5 166.5,357.5C 166.537,344.488 166.203,331.488 165.5,318.5 Z"/></g>
<g><path style="opacity:1" fill="#86c3fe" d="M 541.5,335.5 C 541.741,337.898 541.074,339.898 539.5,341.5C 539.259,339.102 539.926,337.102 541.5,335.5 Z"/></g>
<g><path style="opacity:1" fill="#9accfe" d="M 460.5,341.5 C 460.323,345.708 458.99,349.374 456.5,352.5C 457.082,348.468 458.416,344.801 460.5,341.5 Z"/></g>
<g><path style="opacity:1" fill="#87c3fe" d="M 539.5,342.5 C 539.741,344.898 539.074,346.898 537.5,348.5C 537.259,346.102 537.926,344.102 539.5,342.5 Z"/></g>
<g><path style="opacity:1" fill="#87c3fe" d="M 537.5,349.5 C 537.741,351.898 537.074,353.898 535.5,355.5C 535.259,353.102 535.926,351.102 537.5,349.5 Z"/></g>
<g><path style="opacity:1" fill="#85bfff" d="M 337.5,363.5 C 336.542,363.047 335.708,362.381 335,361.5C 333.951,363.618 332.451,365.284 330.5,366.5C 331.059,363.157 332.392,360.157 334.5,357.5C 336.038,359.243 337.038,361.243 337.5,363.5 Z"/></g>
<g><path style="opacity:1" fill="#9ccdfe" d="M 456.5,354.5 C 456.323,358.708 454.99,362.374 452.5,365.5C 453.082,361.468 454.416,357.801 456.5,354.5 Z"/></g>
<g><path style="opacity:1" fill="#80beff" d="M 640.5,361.5 C 639.167,362.5 637.833,363.5 636.5,364.5C 636.673,361.821 637.673,359.487 639.5,357.5C 640.429,358.689 640.762,360.022 640.5,361.5 Z"/></g>
<g><path style="opacity:1" fill="#88c3fe" d="M 535.5,356.5 C 535.741,358.898 535.074,360.898 533.5,362.5C 533.259,360.102 533.926,358.102 535.5,356.5 Z"/></g>
<g><path style="opacity:1" fill="#2894ff" d="M 337.5,363.5 C 341.091,372.272 344.091,381.272 346.5,390.5C 345.675,391.386 344.675,391.719 343.5,391.5C 337.167,391.5 330.833,391.5 324.5,391.5C 325.167,388.167 325.833,384.833 326.5,381.5C 326.629,379.784 326.962,378.117 327.5,376.5C 329.655,374.383 330.655,371.716 330.5,368.5C 330.5,367.833 330.5,367.167 330.5,366.5C 332.451,365.284 333.951,363.618 335,361.5C 335.708,362.381 336.542,363.047 337.5,363.5 Z"/></g>
<g><path style="opacity:1" fill="#2d96ff" d="M 640.5,361.5 C 643.582,366.347 645.582,371.681 646.5,377.5C 646.992,379.819 647.992,381.819 649.5,383.5C 651.051,385.913 651.717,388.579 651.5,391.5C 649.5,391.5 647.5,391.5 645.5,391.5C 640.167,391.5 634.833,391.5 629.5,391.5C 630.486,387.557 631.152,383.557 631.5,379.5C 632.572,374.285 634.238,369.285 636.5,364.5C 637.833,363.5 639.167,362.5 640.5,361.5 Z"/></g>
<g><path style="opacity:1" fill="#97ccfe" d="M 129.5,317.5 C 129.126,349.166 128.793,380.833 128.5,412.5C 127.336,381.336 127.169,350.003 128,318.5C 128.383,317.944 128.883,317.611 129.5,317.5 Z"/></g>
<g><path style="opacity:1" fill="#7abdfe" d="M 723.5,317.5 C 723.048,351.499 722.714,385.499 722.5,419.5C 721.336,386.336 721.169,353.003 722,319.5C 722.278,318.584 722.778,317.918 723.5,317.5 Z"/></g>
<g><path style="opacity:1" fill="#88c3fe" d="M 533.5,363.5 C 533.741,365.898 533.074,367.898 531.5,369.5C 531.259,367.102 531.926,365.102 533.5,363.5 Z"/></g>
<g><path style="opacity:1" fill="#9bccfe" d="M 598.5,369.5 C 598.975,372.313 597.975,374.313 595.5,375.5C 595.992,373.181 596.992,371.181 598.5,369.5 Z"/></g>
<g><path style="opacity:1" fill="#89c3ff" d="M 330.5,368.5 C 330.655,371.716 329.655,374.383 327.5,376.5C 327.98,373.557 328.98,370.89 330.5,368.5 Z"/></g>
<g><path style="opacity:1" fill="#a5d2ff" d="M 452.5,367.5 C 452.186,370.947 451.352,374.28 450,377.5C 447.693,378.39 446.527,377.39 446.5,374.5C 447.397,375.598 448.23,375.598 449,374.5C 450.213,372.075 451.379,369.741 452.5,367.5 Z"/></g>
<g><path style="opacity:1" fill="#88c4fe" d="M 531.5,370.5 C 531.741,372.898 531.074,374.898 529.5,376.5C 529.259,374.102 529.926,372.102 531.5,370.5 Z"/></g>
<g><path style="opacity:1" fill="#a9d3ff" d="M 646.5,377.5 C 648.539,378.911 649.539,380.911 649.5,383.5C 647.992,381.819 646.992,379.819 646.5,377.5 Z"/></g>
<g><path style="opacity:1" fill="#8ec7ff" d="M 326.5,381.5 C 325.833,384.833 325.167,388.167 324.5,391.5C 330.833,391.5 337.167,391.5 343.5,391.5C 336.687,392.491 329.687,392.825 322.5,392.5C 322.278,388.158 323.611,384.491 326.5,381.5 Z"/></g>
<g><path style="opacity:1" fill="#87c3ff" d="M 631.5,379.5 C 631.152,383.557 630.486,387.557 629.5,391.5C 634.833,391.5 640.167,391.5 645.5,391.5C 639.69,392.49 633.69,392.823 627.5,392.5C 627.839,387.754 629.172,383.42 631.5,379.5 Z"/></g>
<g><path style="opacity:1" fill="#9bcdff" d="M 208.5,394.5 C 194.5,394.5 180.5,394.5 166.5,394.5C 166.826,403.349 166.493,412.016 165.5,420.5C 165.5,411.5 165.5,402.5 165.5,393.5C 180.01,393.171 194.343,393.504 208.5,394.5 Z"/></g>
<g><path style="opacity:1" fill="#9bccfe" d="M 587.5,396.5 C 587.975,399.313 586.975,401.313 584.5,402.5C 584.992,400.181 585.992,398.181 587.5,396.5 Z"/></g>
<g><path style="opacity:1" fill="#6db2ff" d="M 661.5,425.5 C 646.485,425.167 631.485,425.501 616.5,426.5C 615.392,429.059 614.059,431.392 612.5,433.5C 612.266,427.074 615.266,423.907 621.5,424C 632.167,423.333 642.833,423.333 653.5,424C 656.365,424.183 659.031,424.683 661.5,425.5 Z"/></g>
<g><path style="opacity:1" fill="#6bb1ff" d="M 360.5,428.5 C 359.733,427.828 359.066,426.995 358.5,426C 342.823,425.167 327.156,425.334 311.5,426.5C 310.965,428.261 309.965,429.594 308.5,430.5C 308.869,428.559 309.536,426.725 310.5,425C 326.46,423.43 342.46,423.096 358.5,424C 360.037,425.11 360.703,426.61 360.5,428.5 Z"/></g>
<g><path style="opacity:1" fill="#8dc6ff" d="M 399.5,425.5 C 400.117,425.611 400.617,425.944 401,426.5C 401.812,430.689 401.645,434.689 400.5,438.5C 400.261,434.158 399.927,429.824 399.5,425.5 Z"/></g>
<g><path style="opacity:1" fill="#98cbff" d="M 271.5,423.5 C 270.962,427.524 270.295,431.524 269.5,435.5C 268.366,433.034 268.199,430.367 269,427.5C 269.2,425.68 270.034,424.347 271.5,423.5 Z"/></g>
<g><path style="opacity:1" fill="#91c7ff" d="M 705.5,429.5 C 706.643,432.976 706.81,436.642 706,440.5C 705.617,441.056 705.117,441.389 704.5,441.5C 704.833,437.5 705.167,433.5 705.5,429.5 Z"/></g>
<g><path style="opacity:1" fill="#66b1fe" d="M 162.5,440.5 C 161.011,444.153 158.344,446.653 154.5,448C 150.311,448.812 146.311,448.645 142.5,447.5C 150.321,448.219 156.987,445.885 162.5,440.5 Z"/></g>
<g><path style="opacity:1" fill="#8ec7ff" d="M 225.5,446.5 C 229.519,446.646 233.519,446.979 237.5,447.5C 236.207,448.158 234.707,448.492 233,448.5C 230.179,448.592 227.679,447.926 225.5,446.5 Z"/></g>
<g><path style="opacity:1" fill="#93c9fe" d="M 798.5,446.5 C 801.86,446.616 805.193,446.949 808.5,447.5C 807.378,448.156 806.045,448.489 804.5,448.5C 802.117,448.639 800.117,447.972 798.5,446.5 Z"/></g>
<g><path style="opacity:1" fill="#b5d9ff" d="M 438.5,448.5 C 442.842,448.739 447.176,449.073 451.5,449.5C 449.866,450.161 448.033,450.494 446,450.5C 443.134,450.7 440.634,450.033 438.5,448.5 Z"/></g>
<g><path style="opacity:1" fill="#74b9fe" d="M 517.5,448.5 C 521.167,449.167 524.833,449.833 528.5,450.5C 524.494,452.069 520.827,451.402 517.5,448.5 Z"/></g>
<g><path style="opacity:1" fill="#9bcdff" d="M 277.5,449.5 C 281.854,450.086 286.188,450.752 290.5,451.5C 287.024,452.643 283.358,452.81 279.5,452C 278.619,451.292 277.953,450.458 277.5,449.5 Z"/></g>
<g><path style="opacity:1" fill="#9acdff" d="M 374.5,450.5 C 377.86,450.616 381.193,450.949 384.5,451.5C 381.041,452.865 377.708,452.531 374.5,450.5 Z"/></g>
<g><path style="opacity:1" fill="#90c8ff" d="M 583.5,450.5 C 587.179,450.724 590.846,451.058 594.5,451.5C 590.71,452.902 587.044,452.569 583.5,450.5 Z"/></g>
<g><path style="opacity:1" fill="#fb8a69" d="M 176.5,487.5 C 186.08,486.894 194.746,489.394 202.5,495C 209.886,500.916 211.386,508.083 207,516.5C 202.041,523.793 196.041,530.126 189,535.5C 188.517,536.448 188.351,537.448 188.5,538.5C 200.838,538.333 213.171,538.5 225.5,539C 246.904,547.551 251.237,561.551 238.5,581C 221.263,591.869 204.93,590.536 189.5,577C 188.167,576.333 186.833,576.333 185.5,577C 191.362,586.919 195.029,597.586 196.5,609C 196.505,621.988 190.505,630.988 178.5,636C 162.333,638.826 152.166,632.326 148,616.5C 147.39,603.821 149.223,591.488 153.5,579.5C 152.711,577.512 151.545,577.179 150,578.5C 144.576,592.859 136.076,605.025 124.5,615C 114.657,619.863 104.99,619.53 95.5,614C 83.876,602.36 83.5427,590.36 94.5,578C 106.284,568.274 119.618,561.441 134.5,557.5C 117.9,552.946 103.4,544.613 91,532.5C 84.229,519.214 87.3957,509.048 100.5,502C 105.775,500.641 111.109,500.308 116.5,501C 130.542,506.045 141.209,515.045 148.5,528C 149.793,528.49 151.127,528.657 152.5,528.5C 152.053,509.709 160.053,496.042 176.5,487.5 Z"/></g>
<g><path style="opacity:1" fill="#c5c2c0" d="M 157.5,534.5 C 180.482,533.986 188.315,544.653 181,566.5C 174.936,573.182 167.436,575.349 158.5,573C 147.857,567.885 143.357,559.385 145,547.5C 148.025,541.977 152.191,537.644 157.5,534.5 Z"/></g>
</svg>
